<?xml version="1.0" encoding="utf-8"?>
<!-- Generator: Adobe Illustrator 15.0.0, SVG Export Plug-In . SVG Version: 6.00 Build 0)  -->
<!DOCTYPE svg PUBLIC "-//W3C//DTD SVG 1.1//EN" "http://www.w3.org/Graphics/SVG/1.1/DTD/svg11.dtd">
<svg version="1.1" id="Layer_1" xmlns="http://www.w3.org/2000/svg" xmlns:xlink="http://www.w3.org/1999/xlink" x="0px" y="0px"
width="600px" height="600px" viewBox="0 0 600 600" enable-background="new 0 0 600 600" xml:space="preserve">
<path fill="#414042" d="M156,284V135.1h109.2v33.5h-70.8v23.2h69.2v33.5h-69.2v25.2h70.8V284H156z"/>
<path fill="#414042" d="M374,287c-36,0-55.4-21-65-40l33-15.6c4.9,11.8,17.6,21.7,31.9,21.7c24.3,0,41.5-18.8,41.5-43.1
c0-24.6-17.2-43.1-41.5-43.1c-14.3,0-27,9.8-31.9,21.7l-33-15.9c9.6-19.4,29-39.7,65-39.7c45.8,0,80.6,31,80.6,77
C454.6,255.7,419.8,287,374,287z"/>
<path fill="#414042" d="M301.8,389.8c0-45.3,34.2-77,79.7-77c45.6,0,79.5,31.7,79.5,77s-33.9,77-79.5,77
C336,466.8,301.8,435.1,301.8,389.8z M421.9,389.8c0-24.3-15.9-43.1-40.4-43.1c-24.6,0-40.6,18.8-40.6,43.1
c0,24.1,16.1,43.1,40.6,43.1C406.1,432.9,421.9,413.9,421.9,389.8z"/>
<path fill="#414042" d="M137.7,390c0-46,34.8-77,80.6-77c36,0,55.4,20.3,65,39.7l-33,15.9c-4.9-11.8-17.6-21.7-31.9-21.7
c-24.3,0-41.5,18.5-41.5,43.1c0,24.3,17.2,43.1,41.5,43.1c14.3,0,27-9.8,31.9-21.7l33,15.6c-9.6,19-29,40-65,40
C172.5,467,137.7,435.7,137.7,390z"/>
</svg>
